# xmcd
#
# Track frame offsets:
#	150
#	17059
#	30478
#	48079
#	62902
#	75862
#	93307
#	109049
#	125526
#	143545
#	157370
#	170606
#	187575
#	204836
#	219942
#	235160
#	251218
#	264014
#
# Disc length: 3668 seconds
# Revision: 0
# Processed by: cddbd v1.5.2PL0 Copyright (c) Steve Scherf et al.
# Submitted via: dBpowerAMP V12.0
#
DISCID=df0e5212
DTITLE=Various Artist - Country Radio July 2010
DYEAR=2010
DGENRE=Country
TTITLE0=Keith Urban - I'm In
TTITLE1=Billy Currington - Pretty Good At Beer Drinkin
TTITLE2=Aaron Lines - The Trouble With California
TTITLE3=Higgins The - Dreamers Like Us
TTITLE4=Leann Rimes - Swingin
TTITLE5=Johnny Reid - Today I'm Gonna Try and Change The World
TTITLE6=Jake Owen - Tell Me
TTITLE7=Jewel - Satisfied
TTITLE8=Uncle Kracker Feat Kid Rock - Good To Be Me
TTITLE9=Craig Moritz - Blame You
TTITLE10=Justin Moore - How I Got To Be This Way
TTITLE11=Terri Clark With Johnny Reid - You Tell Me
TTITLE12=Lady Antebellum - Our Kind Of Love
TTITLE13=Jaydee Bixby - Tailgate
TTITLE14=Tonya Kennedy - When You're Gone
TTITLE15=Troy Olsen - Summer Thing
TTITLE16=Randy Houser - I'm All About It
TTITLE17=Tyler Dickerson - Tell Your Sister I'm Single
EXTD=
EXTT0=
EXTT1=
EXTT2=
EXTT3=
EXTT4=
EXTT5=
EXTT6=
EXTT7=
EXTT8=
EXTT9=
EXTT10=
EXTT11=
EXTT12=
EXTT13=
EXTT14=
EXTT15=
EXTT16=
EXTT17=
PLAYORDER=
